<svg fill="none" height="24" viewBox="0 0 24 24" width="24" xmlns="http://www.w3.org/2000/svg"><g fill="#fff"><path d="m16.5356 24c-.1541 0-.3963-.0938-.7266-.2813-.3083-.2187-.6386-.4687-.9909-.7499-.3523-.3125-.6386-.6094-.8587-.8907-.4845-.6562-.8918-1.4531-1.2221-2.3906s-.5615-1.9375-.6937-3c-.1321-1.0938-.1431-2.1406-.033-3.1406.2422-2 .7707-3.96878 1.5854-5.90627.8148-1.96875 1.7506-3.59376 2.8075-4.87501.5725-.71874 1.09-1.26562 1.5524-1.64062.4624-.406249 1.0239-.71875 1.6845-.9375.2422-.0937493.5065-.1406245.7927-.1406245.2863-.0312515.5065-.0468755.6606-.0468755.4404 0 .8808.124999 1.3212.374999s.8147.562502 1.123.937501c.3083.34375.4624.67187.4624.98437 0 .21875-.011.39063-.033.51563-.022.09375-.1211.07812-.2973-.04688h-.3303l.3303 1.35938c.0881.25.1652.59375.2312 1.03125.0661.40625.0991.78125.0991 1.125 0 .28125-.033.73438-.0991 1.35938-.066.59375-.1541 1.23437-.2642 1.92187s-.2202 1.3281-.3303 1.9219c-.1101.5937-.2092 1.0312-.2973 1.3125-.066.1875-.1101.375-.1321.5625v.4219c-.0881.2187-.2312.6406-.4294 1.2656-.1761.625-.3083 1.0625-.3963 1.3125-.0881.125-.1652.2343-.2312.3281-.0441.0937-.0221.2031.066.3281 0 .0625-.055.2656-.1651.6094-.1101.3125-.2312.6094-.3633.8906-.1101.2813-.1982.4219-.2643.4219 0 0-.033.0156-.0991.0469-.044 0-.066.0468-.066.1406 0 .125-.1432.4531-.4294.9844-.2863.5-.6276 1.0312-1.0239 1.5937-.2202.3125-.5285.6563-.9249 1.0313-.3743.3437-.7486.6406-1.123.8906-.3743.25-.6716.375-.8918.375zm-.099-2.9531c.2422 0 .4734-.0469.6936-.1407.2202-.125.4073-.2968.5615-.5156.3963-.375.8587-.9844 1.3872-1.8281.5285-.875.9138-1.7188 1.156-2.5313.2423-.4687.4294-.9531.5615-1.4531.1542-.5312.3854-1.4218.6937-2.6718.1761-.3438.2972-.7657.3633-1.2657s.0991-.92185.0991-1.2656 0-.8125 0-1.40625c.022-.59375.0771-1.09375.1651-1.5 0-.8125-.011-1.34375-.033-1.59375-.022-.28125-.1101-.54687-.2642-.79687-.0881-.09376-.2092-.18751-.3634-.28125-.1321-.09375-.2752-.14063-.4293-.14063-.1542 0-.4404.125-.8588.375-.4184.21875-.7156.40625-.8918.5625-.1541.125-.3303.14062-.5285.04687-.1761-.09375-.2642-.21874-.2642-.37499 0-.4375-.1982-.46876-.5945-.09376-.3964.34375-.8368.93751-1.3212 1.78126-.3964.5625-.7377 1.14062-1.0239 1.73437-.2643.5625-.3964.90625-.3964 1.03125s-.033.28125-.0991.46875c-.066.1875-.1321.40625-.1982.65625-.1101.21875-.2422.57815-.3963 1.07815s-.3083 1-.4624 1.5c-.1321.4687-.2202.8281-.2643 1.0781v1.0313 1.4999c0 .5313.0111.9844.0331 1.3594.044.375.0991.7031.1651.9844.0661.25.1542.5313.2643.8438.088.2187.2202.4843.3963.7968.1982.2813.3303.4844.3964.6094.2422.3125.4404.5.5945.5625.1541.0313.4404-.0156.8588-.1406z"/><path d="m2.397 22.125c-.15414-.1875-.35232-.75-.59454-1.6875-.22019-.9375-.44039-2.0313-.66058-3.2813-.198181-1.2812-.363328-2.4531-.495446-3.5156-.088079-.625-.187167-1.1562-.297265-1.5937-.088079-.4375-.165148-.7969-.231207-1.0782-.11009804-.5625-.1431273-1.0312-.0990879-1.4062.0440392-.375.1981769-.67188.4624119-.89063.110099-.09375.242216-.15624.396354-.1875.17616-.06249.30827-.07812.39635-.04687.26424.125.50646.70313.72665 1.7344.2202 1 .41837 2.3281.59453 3.9843.08808.9688.19818 1.7969.3303 2.4844.13211.6875.19817 1.0938.19817 1.2188.08808.25.18717.5.29727.75.13212.2187.28625.2031.46241-.0469.08808-.125.26424-.4063.52847-.8438.28626-.4375.5615-.9062.82574-1.4062.46241-.875.82574-1.5938 1.08997-2.1563.28626-.5625.60554-1.1562.95786-1.7812.15413-.3125.33029-.6563.52847-1.0313.19817-.3749.39635-.7187.59453-1.0312.22019-.34375.41837-.54687.59453-.60937.52847-.12501.81472.03125.85876.46877.04404.4375-.15413 1.0937-.59453 1.9687-.17615.375-.31928.7344-.42938 1.0781-.08808.3125-.17616.5313-.26424.6563-.17615.5-.4514 1.1406-.82573 1.9219-.37434.75-.73766 1.4531-1.08998 2.1093-.35231.625-.59452 1.0313-.72664 1.2188-.08808.125-.28626.3594-.59453.7031-.28626.3438-.5615.7813-.82574 1.3125-.52847.7188-.94684 1.1563-1.25512 1.3125-.30827.1563-.59453.0469-.85876-.3281z"/></g></svg>